<svg role="img" fill="#eeeeee" version="1.1" id="Layer_1" xmlns="http://www.w3.org/2000/svg" xmlns:xlink="http://www.w3.org/1999/xlink" x="0px" y="0px"
	 viewBox="0 0 100 94.1" style="enable-background:new 0 0 100 94.1;" xml:space="preserve">
	 <title>It's Not All Raindows &amp; Butterflies</title>
<path d="M9.8,66.6v11.7c-3.6,0.8-6.2,4-6.2,7.8c0,4.4,3.6,8,8,8h17.1c4.4,0,8-3.6,8-8c0-4.6-3.9-8.2-8.4-8c0-0.6-0.1-1.2-0.2-1.7
	v-9.8c0-11.3,9.2-20.5,20.5-20.5s20.5,9.2,20.5,20.5v11.5c-0.2,0-0.4,0-0.6,0c-4.4,0-8,3.6-8,8c0,4.4,3.6,8,8,8h17.1
	c4.4,0,8-3.6,8-8c0-3.8-2.7-7-6.2-7.8V66.6c0-21.5-17.5-38.9-38.9-38.9S9.8,45.1,9.8,66.6z M28.8,81.1c2.7,0,5,2.2,5,5s-2.2,5-5,5
	H11.6c-2.7,0-5-2.2-5-5s2.2-5,5-5c0.7,0,1.3,0.1,1.9,0.4c0.5,0.2,1.2,0.1,1.6-0.3c0.4-0.4,0.6-1,0.4-1.6c-0.1-0.5-0.2-0.9-0.2-1.4
	c0-2.7,2.2-5,5-5s5,2.2,5,5c0,0.4-0.1,0.9-0.2,1.3c-0.2,0.5,0,1.1,0.4,1.5c0.4,0.4,1,0.5,1.5,0.3C27.7,81.2,28.2,81.1,28.8,81.1z
	 M48.7,43c-13,0-23.6,10.6-23.6,23.6v5.2c-1.3-1-2.9-1.5-4.6-1.6v-3.6c0-15.5,12.6-28.2,28.2-28.2S76.9,51,76.9,66.6v3.6
	c-1.7,0.1-3.3,0.8-4.6,1.8v-5.4C72.3,53.6,61.7,43,48.7,43z M90.8,86.1c0,2.7-2.2,5-5,5H68.7c-2.7,0-5-2.2-5-5s2.2-5,5-5
	c0.4,0,0.8,0.1,1.2,0.2c0.3,0.2,0.6,0.3,0.9,0.3c0.1,0,0.1,0,0.1,0c0.5,0.1,0.9,0,1.3-0.4c0.4-0.4,0.6-1,0.4-1.6
	c-0.1-0.5-0.2-1-0.2-1.4c0-2.7,2.2-5,5-5s5,2.2,5,5c0,0.4-0.1,0.9-0.2,1.3c-0.2,0.5,0,1.1,0.4,1.5c0.4,0.4,1,0.5,1.5,0.3
	c0.5-0.2,1.1-0.3,1.6-0.3C88.6,81.1,90.8,83.3,90.8,86.1z M84.6,66.6v8c-1-1.9-2.6-3.3-4.6-4v-4c0-17.2-14-31.3-31.3-31.3
	s-31.3,14-31.3,31.3v4.1c-2.1,0.8-3.8,2.5-4.6,4.6v-8.7c0-19.8,16.1-35.9,35.9-35.9S84.6,46.8,84.6,66.6z"/>
<path d="M84.1,25.1c5,0,9.1-4.1,9.1-9.1c0-5-4.1-9.1-9.1-9.1s-9.1,4.1-9.1,9.1C74.9,21,79,25.1,84.1,25.1z M84.1,9.8
	c3.4,0,6.1,2.7,6.1,6.1S87.4,22,84.1,22c-3.4,0-6.1-2.7-6.1-6.1S80.7,9.8,84.1,9.8z"/>
<path d="M84.1,5.3c0.8,0,1.5-0.7,1.5-1.5V1.5c0-0.8-0.7-1.5-1.5-1.5c-0.8,0-1.5,0.7-1.5,1.5v2.2C82.6,4.6,83.2,5.3,84.1,5.3z"/>
<path d="M75,4.7c-0.6-0.6-1.6-0.6-2.2,0s-0.6,1.6,0,2.2l1.6,1.6c0.3,0.3,0.7,0.4,1.1,0.4s0.8-0.1,1.1-0.4c0.6-0.6,0.6-1.6,0-2.2
	L75,4.7z"/>
<path d="M71.9,14.4h-2.2c-0.8,0-1.5,0.7-1.5,1.5c0,0.8,0.7,1.5,1.5,1.5h2.2c0.8,0,1.5-0.7,1.5-1.5C73.4,15.1,72.8,14.4,71.9,14.4z"
	/>
<path d="M72.8,27.2c0.3,0.3,0.7,0.4,1.1,0.4c0.4,0,0.8-0.1,1.1-0.4l1.6-1.6c0.6-0.6,0.6-1.6,0-2.2c-0.6-0.6-1.6-0.6-2.2,0L72.8,25
	C72.2,25.6,72.2,26.6,72.8,27.2z"/>
<path d="M85.6,30.3v-2.2c0-0.8-0.7-1.5-1.5-1.5c-0.8,0-1.5,0.7-1.5,1.5v2.2c0,0.8,0.7,1.5,1.5,1.5C84.9,31.8,85.6,31.1,85.6,30.3z"
	/>
<path d="M93.2,27.2c0.3,0.3,0.7,0.4,1.1,0.4c0.4,0,0.8-0.1,1.1-0.4c0.6-0.6,0.6-1.6,0-2.2l-1.6-1.6c-0.6-0.6-1.6-0.6-2.2,0
	C91,24,91,25,91.6,25.6L93.2,27.2z"/>
<path d="M94.7,15.9c0,0.8,0.7,1.5,1.5,1.5h2.2c0.8,0,1.5-0.7,1.5-1.5c0-0.8-0.7-1.5-1.5-1.5h-2.2C95.4,14.4,94.7,15.1,94.7,15.9z"/>
<path d="M92.7,8.8c0.4,0,0.8-0.1,1.1-0.4l1.6-1.6c0.6-0.6,0.6-1.6,0-2.2c-0.6-0.6-1.6-0.6-2.2,0l-1.6,1.6c-0.6,0.6-0.6,1.6,0,2.2
	C91.9,8.7,92.3,8.8,92.7,8.8z"/>
<path d="M9.6,11c0,0,4.8-2.9,9.6,1.4c0.3,0.3,0.6,0.4,1,0.4c1.5,0,5.9,0.5,6.8,2.6c0.2,0.6,0.8,0.9,1.4,0.9c0.2,0,0.4,0,0.6-0.1
	c0.8-0.3,1.1-1.2,0.8-2c-1.6-3.8-7.2-4.4-9.1-4.5C15.7,5.6,10.2,7,8,8.5c-0.7,0.4-0.9,1.4-0.5,2.1C8,11.3,8.9,11.5,9.6,11z"/>
<path d="M2.3,24.9C2.5,24.8,6,22.8,9.6,26c0.3,0.3,0.6,0.4,1,0.4c1.4,0,4.5,0.5,5.2,1.9c0.2,0.6,0.8,0.9,1.4,0.9
	c0.2,0,0.4,0,0.6-0.1c0.8-0.3,1.1-1.2,0.8-2c-1.3-3.1-5.7-3.7-7.4-3.8C7,20,2.6,21.2,0.7,22.3c-0.7,0.4-0.9,1.4-0.5,2.1
	C0.7,25.1,1.6,25.4,2.3,24.9z"/>
</svg>
